<?xml version="1.0" encoding="UTF-8" standalone="no"?><!DOCTYPE svg PUBLIC "-//W3C//DTD SVG 1.1//EN" "http://www.w3.org/Graphics/SVG/1.1/DTD/svg11.dtd"><svg width="100%" height="100%" viewBox="0 0 67 67" version="1.1" xmlns="http://www.w3.org/2000/svg" xmlns:xlink="http://www.w3.org/1999/xlink" xml:space="preserve" xmlns:serif="http://www.serif.com/" style="fill-rule:evenodd;clip-rule:evenodd;stroke-linecap:square;stroke-linejoin:round;stroke-miterlimit:1.5;"><g id="Pegar-negro" serif:id="Pegar negro"><path d="M62.419,31.651l0,26.853c0,2.161 -1.754,3.915 -3.915,3.915l-18.27,0c-2.161,0 -3.915,-1.754 -3.915,-3.915l0,-26.853c0,-2.161 1.754,-3.915 3.915,-3.915l18.27,0c2.161,0 3.915,1.754 3.915,3.915Zm-22.114,0.071l0,26.712l18.129,0l0,-26.712l-18.129,0Z"/><path d="M57.247,34.99l0,1.722c0,0.475 -0.386,0.861 -0.861,0.861l-13.867,0c-0.475,0 -0.861,-0.386 -0.861,-0.861l0,-1.722c0,-0.475 0.386,-0.861 0.861,-0.861l13.867,0c0.475,0 0.861,0.386 0.861,0.861Z"/><path d="M57.247,47.31l0,1.722c0,0.475 -0.386,0.861 -0.861,0.861l-13.867,0c-0.475,0 -0.861,-0.386 -0.861,-0.861l0,-1.722c0,-0.475 0.386,-0.861 0.861,-0.861l13.867,0c0.475,0 0.861,0.386 0.861,0.861Z"/><path d="M57.247,53.441l0,1.722c0,0.475 -0.386,0.861 -0.861,0.861l-13.867,0c-0.475,0 -0.861,-0.386 -0.861,-0.861l0,-1.722c0,-0.475 0.386,-0.861 0.861,-0.861l13.867,0c0.475,0 0.861,0.386 0.861,0.861Z"/><path d="M57.247,41.299l0,1.722c0,0.475 -0.386,0.861 -0.861,0.861l-13.867,0c-0.475,0 -0.861,-0.386 -0.861,-0.861l0,-1.722c0,-0.475 0.386,-0.861 0.861,-0.861l13.867,0c0.475,0 0.861,0.386 0.861,0.861Z"/><path d="M39.272,9.974l3.72,0c3.566,0 6.461,2.588 6.461,5.776l0,8.56m-16.802,31.723l-19.81,-0c-3.566,0 -6.461,-2.588 -6.461,-5.776l0,-34.507c0,-3.188 2.895,-5.776 6.461,-5.776l3.72,0" style="fill:none;stroke:#000;stroke-width:4.17px;"/></g><path d="M38.755,7.111l0,5.726c0,1.58 -1.283,2.863 -2.863,2.863l-15.951,0c-1.58,0 -2.863,-1.283 -2.863,-2.863l0,-5.726c0,-1.58 1.283,-2.863 2.863,-2.863l15.951,0c1.58,0 2.863,1.283 2.863,2.863Zm-17.51,1.304l0,3.119l13.344,0l0,-3.119l-13.344,0Z"/></svg>