<?xml version="1.0" encoding="UTF-8" standalone="no"?><!DOCTYPE svg PUBLIC "-//W3C//DTD SVG 1.1//EN" "http://www.w3.org/Graphics/SVG/1.1/DTD/svg11.dtd"><svg width="100%" height="100%" viewBox="0 0 67 67" version="1.1" xmlns="http://www.w3.org/2000/svg" xmlns:xlink="http://www.w3.org/1999/xlink" xml:space="preserve" xmlns:serif="http://www.serif.com/" style="fill-rule:evenodd;clip-rule:evenodd;stroke-linecap:square;stroke-linejoin:round;stroke-miterlimit:1.5;"><g id="Blanco"><path d="M62.419,19.314l0,37.62c0,3.027 -2.458,5.485 -5.485,5.485l-25.595,0c-3.027,0 -5.485,-2.458 -5.485,-5.485l0,-37.62c0,-3.027 2.458,-5.485 5.485,-5.485l25.595,0c3.027,0 5.485,2.458 5.485,5.485Zm-3.986,0c0,-0.827 -0.672,-1.499 -1.499,-1.499l-25.595,0c-0.827,0 -1.499,0.672 -1.499,1.499l0,37.62c0,0.827 0.672,1.499 1.499,1.499l25.595,0c0.827,0 1.499,-0.672 1.499,-1.499l0,-37.62Z" style="fill:#fff;"/><path d="M22.717,51.048l-11.558,0c-2.702,0 -4.896,-2.259 -4.896,-5.041l0,-34.58c0,-2.782 2.194,-5.041 4.896,-5.041l22.847,0c2.702,0 4.896,1.605 4.896,4.387" style="fill:none;stroke:#fff;stroke-width:3.99px;"/><path d="M55.174,23.993l0,2.413c0,0.666 -0.541,1.207 -1.207,1.207l-19.427,0c-0.666,0 -1.207,-0.541 -1.207,-1.207l0,-2.413c0,-0.666 0.541,-1.207 1.207,-1.207l19.427,0c0.666,0 1.207,0.541 1.207,1.207Z" style="fill:#fff;"/><path d="M55.174,41.253l0,2.413c0,0.666 -0.541,1.207 -1.207,1.207l-19.427,0c-0.666,0 -1.207,-0.541 -1.207,-1.207l0,-2.413c0,-0.666 0.541,-1.207 1.207,-1.207l19.427,0c0.666,0 1.207,0.541 1.207,1.207Z" style="fill:#fff;"/><path d="M55.174,49.842l0,2.413c0,0.666 -0.541,1.207 -1.207,1.207l-19.427,0c-0.666,0 -1.207,-0.541 -1.207,-1.207l0,-2.413c0,-0.666 0.541,-1.207 1.207,-1.207l19.427,0c0.666,0 1.207,0.541 1.207,1.207Z" style="fill:#fff;"/><path d="M55.174,32.832l0,2.413c0,0.666 -0.541,1.207 -1.207,1.207l-19.427,0c-0.666,0 -1.207,-0.541 -1.207,-1.207l0,-2.413c0,-0.666 0.541,-1.207 1.207,-1.207l19.427,0c0.666,0 1.207,0.541 1.207,1.207Z" style="fill:#fff;"/></g></svg>