<?xml version="1.0" encoding="UTF-8" standalone="no"?><!DOCTYPE svg PUBLIC "-//W3C//DTD SVG 1.1//EN" "http://www.w3.org/Graphics/SVG/1.1/DTD/svg11.dtd"><svg width="100%" height="100%" viewBox="0 0 67 67" version="1.1" xmlns="http://www.w3.org/2000/svg" xmlns:xlink="http://www.w3.org/1999/xlink" xml:space="preserve" xmlns:serif="http://www.serif.com/" style="fill-rule:evenodd;clip-rule:evenodd;stroke-linecap:round;stroke-linejoin:round;stroke-miterlimit:1.5;"><g id="RESET-BLANCO" serif:id="RESET BLANCO"><path d="M4.495,35.132l21.468,-9.085l-21.227,-14.497l-0.241,23.582Z" style="fill:#fff;"/><path d="M4.28,34.948l21.468,-9.085l-21.227,-14.497l-0.241,23.582Z" style="fill:#fff;"/><path d="M62.602,31.559l-21.476,9.067l21.215,14.515l0.261,-23.582Z" style="fill:#fff;"/><path d="M62.387,31.375l-21.476,9.067l21.215,14.515l0.261,-23.582Z" style="fill:#fff;"/><path d="M56.606,24.287c-2.109,-6.14 -6.109,-10.436 -12.411,-13.317c-12.176,-5.565 -26.517,-0.062 -32.007,12.281" style="fill:none;stroke:#fff;stroke-width:9.17px;"/><path d="M56.391,24.102c-2.109,-6.14 -6.109,-10.436 -12.411,-13.317c-12.176,-5.565 -26.517,-0.062 -32.007,12.281" style="fill:none;stroke:#fff;stroke-width:9.17px;"/><path d="M10.429,42.561c2.255,5.632 6.563,10.43 12.452,13.128c12.171,5.575 26.517,0.084 32.017,-12.254" style="fill:none;stroke:#fff;stroke-width:9.17px;"/><path d="M10.214,42.377c2.255,5.632 6.563,10.43 12.452,13.128c12.171,5.575 26.517,0.084 32.017,-12.254" style="fill:none;stroke:#fff;stroke-width:9.17px;"/></g></svg>